<svg xmlns="http://www.w3.org/2000/svg" xml:space="preserve" style="enable-background:new 0 0 1220 1220" viewBox="0 0 1220 1220" width="1220" height="1220"><linearGradient id="a" x1="1220" x2="0" y1="1220" y2="0" gradientUnits="userSpaceOnUse"><stop offset="0" style="stop-color:#71daed"/><stop offset="1" style="stop-color:#dccaf0"/></linearGradient><path d="M0 0v1220h1220V0H0zm984.4 536.4c-1.2 27.6-4.8 55-10.5 82-6 28.3-14.2 56.1-24.7 83.1-21.9 56.7-52.5 109.6-90.6 156.9-18.1 22.5-38.1 43.6-59.7 63-20.5 18.4-42.6 35.2-65.8 50.1-22.2 14.2-45.6 26.4-69.9 36.4-23.2 9.6-47.2 16.9-71.8 21.9-23.5 4.8-47.7 6.9-71.7 6.4-23.4-.4-46.8-3.7-69.4-9.9-45.7-12.3-87.4-36.4-121-69.9-16.6-16.6-31-35.1-43.2-55.2-12.4-20.5-22.5-42.6-30.3-65.4-7.9-23.8-13.6-48.3-16.9-73.2-3.4-26.1-4.5-52.5-3.3-78.7 1.2-27.6 4.8-55 10.5-82 6-28.3 14.2-56.1 24.7-83.1 11-28.2 24.1-55.6 39.2-81.9 15.1-26.2 32.4-51.3 51.4-75 18.1-22.5 38.1-43.6 59.7-63 20.5-18.4 42.6-35.2 65.8-50.1 22.2-14.2 45.6-26.4 69.9-36.4 23.2-9.6 47.2-16.9 71.8-21.9 23.5-4.8 47.7-6.9 71.7-6.4 23.4.4 46.8 3.7 69.4 9.9 45.7 12.3 87.4 36.4 121 69.9 16.6 16.6 31 35.1 43.2 55.2 12.4 20.5 22.5 42.6 30.3 65.4 7.9 23.8 13.6 48.3 16.9 73.2 3.4 26.1 4.5 52.5 3.3 78.7z" style="fill:url(#a)"/></svg>