<?xml version="1.0" encoding="utf-8"?>
<!-- Generator: Adobe Illustrator 27.4.1, SVG Export Plug-In . SVG Version: 6.00 Build 0)  -->
<svg version="1.1" id="レイヤー_1" xmlns="http://www.w3.org/2000/svg" xmlns:xlink="http://www.w3.org/1999/xlink" x="0px"
	 y="0px" viewBox="0 0 1220 1220" style="enable-background:new 0 0 1220 1220;" xml:space="preserve">
<style type="text/css">
	.st0{fill:url(#SVGID_1_);}
</style>
<linearGradient id="SVGID_1_" gradientUnits="userSpaceOnUse" x1="1220" y1="-9.094947e-13" x2="-1.818989e-12" y2="1220" gradientTransform="matrix(1 0 0 -1 0 1220)">
	<stop  offset="0" style="stop-color:#F1E8CB"/>
	<stop  offset="1" style="stop-color:#DFA4E8"/>
</linearGradient>
<path class="st0" d="M0,0v1220h1220V0H0z M984.4,536.4c-1.2,27.6-4.8,55-10.5,82c-6,28.3-14.2,56.1-24.7,83.1
	c-21.9,56.7-52.5,109.6-90.6,156.9c-18.1,22.5-38.1,43.6-59.7,63c-20.5,18.4-42.6,35.2-65.8,50.1c-22.2,14.2-45.6,26.4-69.9,36.4
	c-23.2,9.6-47.2,16.9-71.8,21.9c-23.5,4.8-47.7,6.9-71.7,6.4c-23.4-0.4-46.8-3.7-69.4-9.9c-45.7-12.3-87.4-36.4-121-69.9
	c-16.6-16.6-31-35.1-43.2-55.2c-12.4-20.5-22.5-42.6-30.3-65.4c-7.9-23.8-13.6-48.3-16.9-73.2c-3.4-26.1-4.5-52.5-3.3-78.7
	c1.2-27.6,4.8-55,10.5-82c6-28.3,14.2-56.1,24.7-83.1c11-28.2,24.1-55.6,39.2-81.9c15.1-26.2,32.4-51.3,51.4-75
	c18.1-22.5,38.1-43.6,59.7-63c20.5-18.4,42.6-35.2,65.8-50.1c22.2-14.2,45.6-26.4,69.9-36.4c23.2-9.6,47.2-16.9,71.8-21.9
	c23.5-4.8,47.7-6.9,71.7-6.4c23.4,0.4,46.8,3.7,69.4,9.9c45.7,12.3,87.4,36.4,121,69.9c16.6,16.6,31,35.1,43.2,55.2
	c12.4,20.5,22.5,42.6,30.3,65.4c7.9,23.8,13.6,48.3,16.9,73.2C984.5,483.8,985.6,510.2,984.4,536.4L984.4,536.4z"/>
</svg>
