<svg xmlns="http://www.w3.org/2000/svg" xml:space="preserve" style="enable-background:new 0 0 184 38" viewBox="0 0 184 38" width="184" height="38"><path d="m72.7 32.9-6.4-11.2 3-3.2c.7-.8 1.4-1.5 2.1-2.1.6-.5 1.3-1 2-1.4.6-.4 1.3-.7 1.9-.9V14h-7.6c.5.2.9.5 1.2.9.3.4.4.9.3 1.3-.1.6-.4 1.2-.9 1.6L60.9 26V.8h-.1c-.5.6-1.1 1-1.7 1.4-.7.4-1.4.7-2.1.9-.7.2-1.5.3-2.2.4v.1c.7.3 1.2.8 1.5 1.4.3.7.5 1.4.5 2.2v25.5c0 .7-.1 1.5-.5 2.2-.3.6-.7 1.1-1.3 1.5v.1h7.5v-.1c-.5-.3-1-.8-1.2-1.4-.3-.7-.4-1.5-.4-2.2v-5.2l2.3-2.5 4.8 8c.2.4.4.9.6 1.4.1.4.2.7.1 1.1-.1.4-.3.7-.7.9v.1h7.7v-.1c-.6-.4-1.1-.8-1.6-1.4-.5-.8-1-1.5-1.4-2.2z"/><path d="M114.6 35.3c-.6-.3-1.2-.8-1.6-1.3-.4-.7-.6-1.4-.5-2.2V13.1h-.1c-.5.5-1.1 1-1.8 1.3-.7.4-1.4.7-2.1.9-.8.2-1.5.4-2.3.5v.2c.7.3 1.2.7 1.6 1.3.4.7.5 1.4.5 2.1v12c-1.1.8-2.2 1.5-3.5 2.1-.9.4-1.9.7-2.9.7-.9.1-1.7-.3-2.3-1-.5-.7-.8-1.6-.8-2.5V13.1h-.1c-.5.5-1 1-1.7 1.4-1.3.8-2.8 1.2-4.3 1.4v.1c.7.2 1.2.7 1.6 1.3.3.7.5 1.4.5 2.2v7.4c-1.4 2.6-4 6.5-9.4 6.5-5 0-8.6-3.5-8.6-8.7 0-.5 0-1 .1-1.4 1.5.7 3.2 1.1 4.9 1.1h.5c1.2 0 2.5-.2 3.6-.5 2.5-.7 4.8-2.1 4.8-5.1 0-8.6-17.6-7.7-18.4 6-.4 6.5 4.3 12.5 11.4 12.5 6.7 0 9.9-6.7 11-9.8v4.7c-.1 1.3.4 2.7 1.2 3.7.9 1 2.1 1.5 3.4 1.4 1.1 0 2.2-.3 3.2-.8 1.1-.5 2.2-1.2 3.2-2 .9-.7 1.8-1.6 2.6-2.4V37.2h.1c.9-.5 1.9-1 2.9-1.2 1.1-.3 2.1-.5 3.2-.4v-.3zM77 23.1c.3-2.1 1.4-4 3-5.4 5.4-4.7 9.9 2.2 4 5.7-.1 0-.1.1-.2.1-.9.4-1.9.6-3 .6-1.3-.1-2.6-.4-3.8-1z"/><path d="M147.1 34.8c-.3-.7-.4-1.4-.4-2.1V18.2c.1-1.3-.4-2.6-1.2-3.6-.9-1-2.1-1.5-3.4-1.4-.8 0-1.6.1-2.3.4-.8.3-1.6.7-2.3 1.1-.8.5-1.5 1-2.1 1.6-.7.6-1.2 1.2-1.8 1.8.1-1.3-.4-2.6-1.2-3.7-.9-.9-2.1-1.4-3.4-1.4-.8 0-1.6.2-2.3.4-.8.3-1.6.7-2.3 1.1-.8.5-1.5 1-2.1 1.6l-1.8 1.8v-5h-.1c-.5.5-1.1 1-1.7 1.4-.7.4-1.4.7-2.2.9-.8.2-1.5.4-2.3.4v.4c.7.2 1.3.7 1.7 1.3.4.6.5 1.4.5 2.1v13.3c0 .7-.2 1.5-.6 2.1-.4.6-.9 1.2-1.6 1.6v.1h8.2v-.1c-.6-.4-1.1-.9-1.4-1.6-.3-.6-.5-1.3-.5-2v-14c1-.8 2.1-1.5 3.2-2 .9-.4 1.8-.7 2.8-.7.9-.1 1.7.3 2.3 1 .5.8.8 1.7.7 2.6v13.2c0 .7-.1 1.4-.5 2-.4.6-.9 1.2-1.5 1.6v.1h7.8v-.1c-.6-.4-1-1-1.3-1.6-.3-.6-.4-1.4-.4-2.1v-14c1-.8 2-1.5 3.2-2.1.9-.4 1.8-.7 2.8-.7.9 0 1.7.3 2.2 1 .5.7.8 1.7.8 2.6v13.2c0 .7-.1 1.4-.5 2-.4.6-.9 1.2-1.5 1.6v.1h7.8v-.1c-.5-.4-1-.9-1.3-1.6zM183.1 13.9c-.5-.5-1.3-.8-2-.8-.9 0-1.8.3-2.6.7-.9.5-1.6 1.2-2.3 1.9-.7.8-1.2 1.6-1.6 2.6v-5.1h-.1c-.5.5-1.1 1-1.7 1.4-.7.4-1.4.7-2.1.9-.7.2-1.5.4-2.3.4v.1c.7.2 1.3.7 1.7 1.3.4.6.5 1.4.5 2.1v13.3c0 .7-.2 1.5-.6 2.1-.4.6-.9 1.1-1.6 1.6v.1h8.3v-.1c-.6-.4-1.1-.9-1.5-1.6-.4-.6-.6-1.4-.6-2.1V19c.4-.7 1-1.4 1.6-1.9.5-.4 1-.7 1.6-.7.3 0 .7.1 1 .3.3.2.6.4.8.7.3.3.5.5.9.7.3.2.7.3 1.1.3.6 0 1.2-.3 1.6-.7.5-.5.7-1.2.7-1.8.1-.8-.2-1.5-.8-2zM33 34.8c-.3-.7-.4-1.4-.4-2.1V18.2c.1-1.3-.4-2.6-1.2-3.6-.9-1-2.1-1.5-3.4-1.4-.8 0-1.6.1-2.3.4-.8.3-1.6.7-2.3 1.1-.8.5-1.5 1-2.1 1.6-.7.6-1.2 1.2-1.8 1.8.1-1.3-.4-2.6-1.2-3.7-.9-.9-2.1-1.4-3.4-1.4-.8 0-1.6.2-2.3.4-.8.3-1.6.7-2.3 1.1-.8.5-1.5 1-2.1 1.6l-1.8 1.8v-5h-.2c-.5.5-1.1 1-1.7 1.4-.7.4-1.4.7-2.2.9-.8.2-1.5.4-2.3.4v.4c.7.2 1.3.7 1.7 1.3.4.6.5 1.4.5 2.1v13.3c0 .7-.2 1.5-.6 2.1-.4.6-.9 1.2-1.6 1.6v.1h8.2v-.1c-.6-.4-1.1-.9-1.4-1.6-.3-.6-.5-1.3-.5-2v-14c1-.8 2.1-1.5 3.2-2 .9-.4 1.8-.7 2.8-.7.9-.1 1.7.3 2.3 1 .5.8.8 1.7.7 2.6v13.2c0 .7-.1 1.4-.5 2-.4.6-.9 1.2-1.5 1.6v.1h7.8v-.1c-.6-.4-1-1-1.3-1.6-.3-.6-.4-1.4-.4-2.1v-14c1-.8 2-1.5 3.2-2 .9-.4 1.8-.7 2.8-.7.9-.1 1.7.3 2.2 1 .5.7.8 1.7.8 2.6v13.2c0 .7-.1 1.4-.5 2-.4.6-.9 1.2-1.5 1.6v.1h7.8v-.1c-.4-.5-.9-1-1.2-1.7z"/><path d="M55.9 33.7c-1 1.2-1.8 1.1-1.8 1.1-2.5 0-2.7-3.1-2.7-3.1V21c0-2.5-.6-4.4-1.7-5.6-.7-.7-2.9-3.2-8.1-2.1-5 1.1-8.5 5.6-4.6 9.3 1.3 1.1 3.2 1.5 4.8.9-4.4 3-8.3 5.1-8.3 8.8v.7c.2 2.4 2.3 4.2 4.7 4 8.5 0 8.6-15.4 8.8-17.9-.3 2.8-1.3 14-7 14.5-1.3.1-2-.8-2-2.3 0-1.9 2.5-5.8 6.5-9.5.1-.1.3-.2.4-.4.9-.8 1.6-1.7 2.2-2.4v.4c0 .4 0 .9.1 1.4v12.1c0 2.3 1.8 4.1 4.1 4.1 2.1.2 3.6-1.5 4.6-3.3zM43.2 16.4s3.7-.3 4.1 2.7c-8.4 7.3-10.4-2.4-4.1-2.7zM47.2 19.2zM168.1 20.2c-.5-1.4-1.3-2.6-2.3-3.7-.9-1-2.1-1.9-3.4-2.5-2.6-1.2-5.6-1.1-8.1.2-1.2.7-2.3 1.6-3.2 2.7-.9 1.2-1.6 2.5-2.1 3.8-.5 1.5-.8 3.1-.7 4.6 0 1.6.3 3.1.9 4.6.5 1.4 1.3 2.7 2.3 3.8.9 1.1 2.1 1.9 3.4 2.6 2.5 1.2 5.5 1.2 8-.2 1.2-.7 2.3-1.6 3.2-2.7.9-1.2 1.7-2.5 2.2-3.9 1-3 1-6.3-.2-9.3zm-4.3 10.6c-.3 1.5-.9 2.8-1.8 4-.7.9-1.8 1.5-3 1.5s-2.4-.4-3.2-1.3c-1-1.1-1.7-2.5-2.1-3.9-.5-1.9-.8-3.9-.8-5.9-.1-1.9.1-3.9.5-5.8.3-1.4.9-2.8 1.8-3.9.8-.9 1.9-1.5 3.1-1.5 1.2-.1 2.4.4 3.2 1.3 1 1.1 1.6 2.4 2 3.8.5 1.9.8 3.8.8 5.8.1 2 0 4-.5 5.9z"/></svg>